<?xml version="1.0" standalone="no"?>
<!DOCTYPE svg PUBLIC "-//W3C//DTD SVG 20010904//EN"
 "http://www.w3.org/TR/2001/REC-SVG-20010904/DTD/svg10.dtd">
<svg version="1.0" xmlns="http://www.w3.org/2000/svg"
 width="72pt" height="21pt" viewBox="0 0 725.000000 217.000000"
 preserveAspectRatio="xMidYMid meet">
<g transform="translate(0.000000,217.000000) scale(0.100000,-0.100000)"
fill="#000000" stroke="none">
<path d="M230 1090 l0 -630 3375 0 3375 0 0 630 0 630 -3375 0 -3375 0 0 -630z
m1320 -10 l0 -420 -635 0 -635 0 0 420 0 420 635 0 635 0 0 -420z m1348 -2 l2
-418 -635 0 -635 0 0 420 0 420 633 -2 632 -3 3 -417z m1342 2 l0 -420 -630 0
-630 0 0 420 0 420 630 0 630 0 0 -420z m1350 0 l0 -420 -635 0 -635 0 0 413
c0 228 3 417 7 420 3 4 289 7 635 7 l628 0 0 -420z m1350 0 l0 -420 -635 0
-635 0 0 413 c0 228 3 417 7 420 3 4 289 7 635 7 l628 0 0 -420z"/>
<path d="M510 1395 l0 -85 30 0 30 0 0 -230 0 -230 -30 0 c-30 0 -30 -1 -30
-55 l0 -55 140 0 140 0 0 55 c0 52 -1 55 -25 55 -25 0 -25 1 -25 85 l0 85 30
0 c27 0 33 -7 70 -80 45 -90 45 -90 25 -90 -12 0 -15 -13 -15 -55 l0 -55 145
0 145 0 0 55 0 55 -43 0 -42 0 -58 115 -57 115 57 115 58 115 42 0 43 0 0 85
0 85 -145 0 -145 0 0 -85 c0 -69 3 -85 15 -85 20 0 20 0 -25 -90 -37 -73 -43
-80 -70 -80 l-30 0 0 85 c0 84 0 85 25 85 25 0 25 1 25 85 l0 85 -140 0 -140
0 0 -85z"/>
<path d="M2030 1405 l0 -85 30 0 30 0 0 -230 0 -230 -30 0 -30 0 0 -85 0 -85
145 0 145 0 0 85 0 85 -30 0 -30 0 0 230 0 230 30 0 30 0 0 85 0 85 -145 0
-145 0 0 -85z"/>
<path d="M3230 1405 l0 -85 30 0 30 0 0 -230 0 -230 -30 0 -30 0 0 -85 0 -85
140 0 140 0 0 85 c0 84 0 85 -25 85 l-25 0 1 143 0 142 115 -227 114 -228 85
0 85 0 0 315 0 315 25 0 c25 0 25 1 25 85 l0 85 -140 0 -140 0 0 -85 0 -85 30
0 30 0 -1 -142 0 -143 -115 228 -114 227 -115 0 -115 0 0 -85z"/>
<path d="M4717 1422 l-57 -58 0 -284 0 -284 57 -58 57 -58 171 0 171 0 57 58
57 58 0 285 0 285 -58 57 -58 57 -170 0 -170 0 -57 -58z m316 -140 l27 -28 0
-174 0 -174 -27 -28 c-24 -25 -34 -28 -88 -28 -54 0 -64 3 -88 28 l-27 28 0
169 0 169 32 33 c29 30 38 33 88 33 49 0 60 -4 83 -28z"/>
<path d="M5962 933 l3 -138 224 -3 c173 -2 226 1 233 10 4 7 8 70 8 141 l0
127 -235 0 -236 0 3 -137z m406 10 c-38 -4 -38 -5 -38 -49 0 -44 0 -44 36 -44
21 0 33 -4 29 -10 -4 -6 -83 -10 -206 -10 -126 0 -199 4 -199 10 0 6 16 10 36
10 l35 0 -3 43 c-3 39 -5 42 -38 48 -19 4 60 6 175 6 116 0 193 -2 173 -4z"/>
<path d="M6070 895 l0 -45 126 0 125 0 -3 43 -3 42 -122 3 -123 3 0 -46z"/>
</g>
</svg>
